<?xml version="1.0" encoding="UTF-8"?>
<svg id="Layer_1" data-name="Layer 1" xmlns="http://www.w3.org/2000/svg" viewBox="0 0 1000 1000">
  <path d="m828,423c0,84.5-68.5,153-153,153-75.29,0-137.87-54.38-150.62-126h-49.76c-12.75,71.62-75.33,126-150.62,126-84.5,0-153-68.5-153-153,0-72.1,49.87-132.55,117-148.74v46.89c-41.95,14.82-72,54.83-72,101.85,0,59.65,48.35,108,108,108s108-48.35,108-108c0-47.02-30.05-87.03-72-101.85v-46.89c58.55,14.12,103.97,61.91,114.62,121.74h49.76c10.65-59.83,56.07-107.62,114.62-121.74v46.89c-41.95,14.82-72,54.83-72,101.85,0,59.65,48.35,108,108,108s108-48.35,108-108c0-47.02-30.05-87.03-72-101.85v-46.89c67.13,16.19,117,76.64,117,148.74Z" fill="#00aeef"/>
  <path d="m360,423c0,19.88-16.12,36-36,36s-36-16.12-36-36c0-3.69.56-7.25,1.59-10.6,2.26,1.03,4.77,1.6,7.41,1.6,9.94,0,18-8.06,18-18,0-2.64-.57-5.15-1.6-7.41,3.35-1.03,6.91-1.59,10.6-1.59,19.88,0,36,16.12,36,36Z" fill="#27aae1"/>
  <path d="m711,423c0,19.88-16.12,36-36,36s-36-16.12-36-36,16.12-36,36-36c3.69,0,7.25.56,10.6,1.59-1.03,2.26-1.6,4.77-1.6,7.41,0,9.94,8.06,18,18,18,2.64,0,5.15-.57,7.41-1.6,1.03,3.35,1.59,6.91,1.59,10.6Z" fill="#27aae1"/>
  <rect x="297" y="225" width="54" height="126" fill="#414042"/>
  <rect x="648" y="225" width="54" height="126" fill="#414042"/>
  <g>
    <path d="m193.46,641.8h-22.4v-13.2h61v13.2h-22.4v56.8h-16.2v-56.8Z" fill="#414042"/>
    <path d="m294.96,685.6v13h-54.2v-70h52.9v13h-36.8v15.2h32.5v12.6h-32.5v16.2h38.1Z" fill="#414042"/>
    <path d="m303.25,663.6c0-21.1,16.2-36.2,38-36.2,12.1,0,22.2,4.4,28.8,12.4l-10.4,9.6c-4.7-5.4-10.6-8.2-17.6-8.2-13.1,0-22.4,9.2-22.4,22.4s9.3,22.4,22.4,22.4c7,0,12.9-2.8,17.6-8.3l10.4,9.6c-6.6,8.1-16.7,12.5-28.9,12.5-21.7,0-37.9-15.1-37.9-36.2Z" fill="#414042"/>
    <path d="m445.16,628.6v70h-16.2v-28.7h-31.8v28.7h-16.2v-70h16.2v27.6h31.8v-27.6h16.2Z" fill="#414042"/>
    <path d="m537.35,662.5h14.8v28.4c-7.7,5.8-18.3,8.9-28.3,8.9-22,0-38.2-15.1-38.2-36.2s16.2-36.2,38.5-36.2c12.3,0,22.5,4.2,29.3,12.1l-10.4,9.6c-5.1-5.4-11-7.9-18.1-7.9-13.6,0-22.9,9.1-22.9,22.4s9.3,22.4,22.7,22.4c4.4,0,8.5-.8,12.6-3v-20.5Z" fill="#414042"/>
    <path d="m621.35,685.6v13h-54.2v-70h52.9v13h-36.8v15.2h32.5v12.6h-32.5v16.2h38.1Z" fill="#414042"/>
    <path d="m688.45,685.6v13h-54.2v-70h52.9v13h-36.8v15.2h32.5v12.6h-32.5v16.2h38.1Z" fill="#414042"/>
    <path d="m726.85,671.1l-9.4,9.8v17.7h-16.1v-70h16.1v32.7l31-32.7h18l-29,31.2,30.7,38.8h-18.9l-22.4-27.5Z" fill="#414042"/>
    <path d="m768.35,691.7l5.5-12.2c5.9,4.3,14.7,7.3,23.1,7.3,9.6,0,13.5-3.2,13.5-7.5,0-13.1-40.7-4.1-40.7-30.1,0-11.9,9.6-21.8,29.5-21.8,8.8,0,17.8,2.1,24.3,6.2l-5,12.3c-6.5-3.7-13.2-5.5-19.4-5.5-9.6,0-13.3,3.6-13.3,8,0,12.9,40.7,4,40.7,29.7,0,11.7-9.7,21.7-29.7,21.7-11.1,0-22.3-3.3-28.5-8.1Z" fill="#414042"/>
  </g>
</svg>